<svg width="62" height="54" viewBox="0 0 62 54" fill="none" xmlns="http://www.w3.org/2000/svg">
<path d="M54.2165 9.77452L59.2462 12.0413C62.2464 13.3661 62.2464 17.2815 59.2756 18.6651L58.5403 19.0006V22.5954C59.0801 22.8578 59.4522 23.4118 59.4522 24.0528C59.4522 24.6272 59.1534 25.1317 58.7028 25.4191C58.8535 25.5772 58.9626 25.7762 59.0112 25.9954C59.0251 26.0716 59.0394 26.1507 59.0542 26.2321L59.0598 26.2624C59.233 27.2147 59.4602 28.464 59.5407 29.0276C59.5681 29.5484 59.6719 30.6563 59.7574 31.5669L59.7575 31.569L59.776 31.7654C59.8348 32.4425 59.3054 33.0313 58.6288 33.0313H57.0405C56.364 33.0313 55.8346 32.4425 55.8934 31.7654C55.9816 30.8234 56.0993 29.6164 56.1875 29.0276C56.2758 28.3799 56.5405 26.9374 56.717 25.9954C56.7514 25.7768 56.8488 25.5852 56.988 25.4328C56.5253 25.1479 56.2167 24.6364 56.2167 24.0528C56.2167 23.4003 56.6023 22.838 57.1579 22.5816V19.6312L48.6279 23.5226L31.5092 31.3534C31.0092 31.5889 30.4209 31.5889 29.9209 31.3534L3.03692 19.0478C-0.345639 17.517 -0.345639 13.1306 3.03692 11.5703L12.8022 7.09555L25.5089 1.29604C28.7738 -0.205357 32.6269 -0.205357 35.8918 1.35492L41.7451 4.06332C43.6276 4.9465 43.7158 7.30163 42.0687 8.36144L38.6273 9.95115L38.3626 10.0689C38.3626 10.0983 38.3332 10.0983 38.3332 10.0983L30.6268 13.6605C30.1562 13.8666 29.9503 14.4259 30.1562 14.8969C30.3033 15.2208 30.6562 15.4268 31.0092 15.4268C31.1268 15.4268 31.2739 15.3974 31.3916 15.3385L38.9508 11.8647C38.995 11.85 39.0317 11.8353 39.0685 11.8205C39.1053 11.8058 39.142 11.7911 39.1861 11.7764L43.5394 9.80396C46.9219 8.27312 50.8633 8.27312 54.2165 9.77452Z" fill="#3252C3"/>
<path fill-rule="evenodd" clip-rule="evenodd" d="M17.3329 29.6072C17.7469 29.3351 18.27 29.2899 18.7246 29.4869L29.9255 34.3419C30.5265 34.5957 31.1965 34.5957 31.7974 34.3419L42.9984 29.4869C43.4529 29.2899 43.976 29.3351 44.3901 29.6072C44.8041 29.8794 45.0535 30.3418 45.0535 30.8376V32.0473L45.7065 31.7893C47.3554 31.1162 49.1279 32.3837 49.1279 34.1208V44.3951C49.1279 45.4016 48.5371 46.2752 47.638 46.6842L47.628 46.6887L31.8111 53.6036C31.1777 53.8961 30.4288 53.8961 29.7954 53.6036L13.9785 46.6887L13.9686 46.6842C13.0695 46.2752 12.4786 45.4016 12.4786 44.3951V34.1208C12.4786 32.3599 14.2686 31.1612 15.8899 31.7853L15.8959 31.7877L16.6694 32.0933V30.8376C16.6694 30.3418 16.9188 29.8794 17.3329 29.6072ZM16.6694 42.1423V33.6758L15.3593 33.1581C14.687 32.9014 13.9493 33.4098 13.9493 34.1208V44.3951C13.9493 44.8002 14.1804 45.1618 14.5728 45.3423L30.3917 52.258C30.3952 52.2595 30.3987 52.2611 30.4022 52.2627C30.4042 52.2636 30.4063 52.2646 30.4083 52.2655C30.6524 52.3795 30.9541 52.3795 31.1982 52.2655C31.2005 52.2644 31.2029 52.2634 31.2052 52.2623C31.2084 52.2608 31.2116 52.2594 31.2149 52.258L47.0337 45.3422C47.4262 45.1618 47.6572 44.8001 47.6572 44.3951V34.1208C47.6572 33.3868 46.9038 32.8887 46.2598 33.1531L46.2507 33.1568L45.0535 33.6298V42.1423C45.0535 42.7285 44.7059 43.2589 44.1685 43.4924L31.4325 49.027C31.0585 49.1895 30.6338 49.1894 30.2599 49.0265L17.5533 43.4919C17.0166 43.2582 16.6694 42.7281 16.6694 42.1423Z" fill="#3252C3"/>
</svg>
