<svg width="14" height="18" viewBox="0 0 14 18" fill="none" xmlns="http://www.w3.org/2000/svg">
<path fill-rule="evenodd" clip-rule="evenodd" d="M4.67505 16.3393L1.67505 14.1964C0.853902 13.6099 0.443329 13.3167 0.221665 12.8859C0 12.4552 0 11.9506 0 10.9415V7.05846C0 6.73711 -2.03277e-10 6.46693 0.0071583 6.234L6 10.5146V17.2313C5.64325 17.0309 5.22699 16.7335 4.67505 16.3393ZM8 17.2313C8.35675 17.0309 8.77301 16.7335 9.32495 16.3393L12.325 14.1964C13.1461 13.6099 13.5567 13.3167 13.7783 12.8859C14 12.4552 14 11.9506 14 10.9415V7.05846C14 6.73711 14 6.46693 13.9928 6.234L8 10.5146V17.2313ZM13.1276 4.39426L7 8.77108L0.872443 4.39426C1.08372 4.2259 1.34653 4.03818 1.67505 3.80352L4.67505 1.66067C5.79773 0.858752 6.35907 0.457794 7 0.457794C7.64093 0.457794 8.20227 0.858752 9.32495 1.66067L12.325 3.80352C12.6535 4.03818 12.9163 4.2259 13.1276 4.39426Z" fill="white"/>
</svg>
