<svg width="25" height="25" viewBox="0 0 25 25" fill="none" xmlns="http://www.w3.org/2000/svg">
    <mask id="mask0_178_38" style="mask-type:alpha" maskUnits="userSpaceOnUse" x="0" y="0"
        width="25" height="25">
        <rect x="0.169565" y="0.426392" width="24" height="24" fill="white" />
    </mask>
    <g mask="url(#mask0_178_38)">
        <path
            d="M6.16957 22.4264C5.61957 22.4264 5.14873 22.2306 4.75707 21.8389C4.3654 21.4472 4.16957 20.9764 4.16957 20.4264V4.42639C4.16957 3.87639 4.3654 3.40556 4.75707 3.01389C5.14873 2.62222 5.61957 2.42639 6.16957 2.42639H18.1696C18.7196 2.42639 19.1904 2.62222 19.5821 3.01389C19.9737 3.40556 20.1696 3.87639 20.1696 4.42639V20.4264C20.1696 20.9764 19.9737 21.4472 19.5821 21.8389C19.1904 22.2306 18.7196 22.4264 18.1696 22.4264H6.16957ZM6.16957 20.4264H18.1696V4.42639H16.1696V11.4264L13.6696 9.92639L11.1696 11.4264V4.42639H6.16957V20.4264Z"
            fill="white" />
    </g>
</svg>