<?xml version="1.0" standalone="no"?>
<!DOCTYPE svg PUBLIC "-//W3C//DTD SVG 20010904//EN"
 "http://www.w3.org/TR/2001/REC-SVG-20010904/DTD/svg10.dtd">
<svg version="1.0" xmlns="http://www.w3.org/2000/svg"
 width="512.000000pt" height="512.000000pt" viewBox="0 0 512.000000 512.000000"
 preserveAspectRatio="xMidYMid meet">

<g transform="translate(0.000000,512.000000) scale(0.100000,-0.100000)"
fill="#000000" stroke="none">
<path d="M2360 5114 c-626 -57 -1181 -313 -1611 -743 -395 -396 -638 -883
-726 -1458 -23 -154 -24 -546 0 -703 86 -572 332 -1068 726 -1460 399 -398
880 -637 1461 -727 159 -24 537 -24 700 0 572 85 1067 332 1460 726 398 399
637 881 727 1461 25 161 25 539 0 700 -90 580 -331 1065 -726 1461 -395 395
-889 641 -1453 725 -99 14 -466 26 -558 18z m835 -944 c4 -14 -86 -188 -324
-626 -182 -333 -331 -611 -331 -618 0 -35 14 -36 595 -36 622 0 621 0 600 -53
-14 -34 -1983 -1869 -2002 -1865 -9 2 -22 12 -29 24 -13 20 16 63 461 677 261
360 475 661 475 669 0 38 -8 38 -629 38 -548 0 -606 2 -623 17 -10 9 -18 21
-18 27 0 6 397 406 882 888 921 915 924 918 943 858z"/>
</g>
</svg>
