<?xml version="1.0" standalone="no"?>
<!DOCTYPE svg PUBLIC "-//W3C//DTD SVG 20010904//EN"
 "http://www.w3.org/TR/2001/REC-SVG-20010904/DTD/svg10.dtd">
<svg version="1.0" xmlns="http://www.w3.org/2000/svg"
 width="300.000000pt" height="300.000000pt" viewBox="0 0 300.000000 300.000000"
 preserveAspectRatio="xMidYMid meet">

<g transform="translate(0.000000,300.000000) scale(0.100000,-0.100000)"
fill="#000000" stroke="none">
<path d="M2900 790 c-7 -4 -19 -6 -27 -3 -7 3 -13 0 -13 -5 0 -11 31 -9 50 3
6 3 17 0 25 -9 8 -8 11 -17 6 -20 -5 -3 -11 1 -15 9 -7 20 -36 8 -30 -13 4
-14 3 -13 -6 1 -11 18 -13 18 -31 1 -10 -9 -19 -13 -19 -8 0 5 -5 2 -10 -6 -8
-11 -9 -5 -5 20 3 19 2 30 -2 25 -5 -6 -21 -11 -37 -10 -18 0 -31 -6 -33 -15
-4 -13 -3 -13 7 0 10 13 11 13 7 -1 -3 -9 0 -23 6 -30 10 -11 9 -11 -4 -1 -21
15 -32 3 -17 -17 10 -12 8 -12 -8 1 -14 13 -23 15 -31 7 -8 -8 -13 -8 -17 0
-6 9 10 15 34 13 3 0 7 8 7 19 1 10 -3 19 -8 19 -6 0 -7 -5 -4 -10 3 -6 -6
-15 -20 -20 -14 -5 -23 -14 -20 -20 3 -6 -4 -10 -17 -10 -14 -1 -34 -15 -52
-38 -54 -67 -127 -121 -209 -153 -44 -16 -85 -28 -93 -25 -7 3 -14 1 -16 -5
-2 -5 -19 -11 -39 -13 -20 -2 -41 -6 -47 -10 -6 -4 -29 -8 -51 -11 -23 -2 -45
-6 -50 -9 -4 -3 -30 -8 -57 -12 -27 -3 -62 -8 -79 -11 -16 -2 -39 -6 -51 -7
-11 -1 -25 -5 -31 -9 -6 -4 -22 -7 -34 -7 -42 -1 -84 -7 -101 -14 -9 -4 -22
-5 -28 -1 -6 4 -17 1 -25 -5 -8 -7 -22 -9 -31 -6 -9 4 -23 1 -30 -5 -8 -6 -25
-8 -38 -5 -14 3 -28 1 -31 -5 -4 -6 -18 -8 -30 -5 -13 3 -27 1 -30 -5 -4 -5
-17 -9 -28 -8 -12 1 -30 -1 -40 -6 -9 -4 -26 -5 -37 -2 -11 3 -23 1 -26 -5 -3
-5 -18 -8 -32 -7 -15 2 -32 0 -38 -4 -6 -3 -43 -8 -82 -11 -39 -2 -75 -7 -80
-10 -8 -5 -35 -6 -167 -7 -17 0 -63 3 -153 9 -15 1 -21 6 -16 14 4 6 3 8 -4 4
-13 -8 -103 34 -96 45 2 4 -4 6 -13 5 -10 -2 -24 3 -31 11 -15 15 -36 18 -27
4 3 -5 0 -13 -6 -17 -8 -4 -9 -3 -5 4 4 7 2 12 -4 12 -6 0 -8 5 -4 12 5 7 3 8
-7 2 -8 -5 -17 -9 -21 -10 -5 -1 -9 -2 -10 -4 -2 -1 -11 -3 -20 -5 -22 -4 -44
20 -27 31 7 4 9 3 6 -2 -3 -5 9 -10 27 -10 19 0 33 5 33 12 0 7 -9 11 -19 9
-10 -2 -18 2 -18 8 0 8 -3 8 -8 2 -11 -15 -32 -17 -32 -3 0 9 -3 8 -10 -2 -5
-8 -26 -15 -47 -16 -21 -1 -38 -3 -38 -4 0 -1 -11 -3 -25 -4 -14 0 -29 -4 -35
-7 -5 -4 -18 -5 -28 -3 -11 1 -16 -1 -12 -4 4 -4 11 -8 16 -8 22 -3 23 -5 9
-15 -13 -9 -12 -10 3 -5 9 3 17 1 17 -4 0 -6 -7 -10 -16 -10 -13 0 -11 -8 12
-38 43 -57 92 -111 97 -106 3 3 14 -6 25 -20 10 -14 22 -23 25 -19 4 3 9 -2
13 -11 3 -9 12 -16 19 -16 7 0 15 -4 17 -8 6 -16 155 -82 218 -96 84 -20 286
-21 452 -1 166 19 799 120 957 151 284 58 435 121 545 228 36 36 66 70 66 75
0 6 9 16 20 23 11 7 20 18 20 25 0 7 9 22 20 33 11 11 18 20 16 20 -3 0 9 29
26 65 16 36 27 72 24 81 -3 8 -2 13 3 10 5 -3 11 3 14 14 3 11 1 23 -4 26 -5
3 -7 9 -5 13 7 10 -28 11 -44 1z m-99 -35 l9 20 -2 -20 c-2 -11 2 -27 6 -35 6
-9 1 -8 -12 4 -12 11 -21 26 -21 35 1 11 3 10 7 -4 l5 -20 8 20z m-2276 -355
c-4 -6 -1 -19 6 -28 11 -14 11 -15 -1 -5 -11 10 -18 9 -34 -5 -15 -13 -15 -10
4 16 22 30 39 45 25 22z m-55 -14 c0 -6 4 -4 10 4 5 8 11 12 15 9 3 -3 -5 -14
-17 -25 -12 -10 -18 -14 -15 -8 4 7 0 15 -9 18 -12 5 -15 2 -10 -11 6 -14 4
-15 -5 -6 -6 6 -9 15 -6 20 8 13 37 12 37 -1z m-46 -19 c5 -20 4 -20 -8 -5
-17 23 -28 11 -15 -16 8 -17 7 -16 -10 4 -22 28 -21 35 7 37 13 1 22 -6 26
-20z"/>
<path d="M2837 776 c-3 -8 -2 -18 3 -21 13 -8 20 9 11 24 -6 10 -10 9 -14 -3z"/>
</g>
</svg>
