<svg width="101" height="111" viewBox="0 0 101 111" fill="none" xmlns="http://www.w3.org/2000/svg">
<g clip-path="url(#clip0_1280_413)">
<path d="M17.9637 7.44858L83.0031 1.75838C85.3456 1.55116 87.6656 1.82154 89.8302 2.55406C91.9948 3.28657 93.9616 4.46684 95.6181 6.0273C97.2745 7.58777 98.588 9.49779 99.4834 11.6481C100.379 13.7984 100.839 16.1467 100.836 18.5587V82.9284C100.839 85.34 100.379 87.7687 99.4834 90.0757C98.588 92.3827 97.2745 94.5225 95.6181 96.3728C93.9616 98.2231 91.9948 99.7475 89.8302 100.859C87.6656 101.97 85.3456 102.646 83.0031 102.849L17.9637 108.539C15.6212 108.747 13.3012 108.476 11.1366 107.744C8.97196 107.011 7.00515 105.831 5.34873 104.27C3.6923 102.71 2.37879 100.8 1.48337 98.6496C0.587938 96.4993 0.128171 94.151 0.130379 91.739V27.3693C0.128171 24.9577 0.587938 22.5289 1.48337 20.222C2.37879 17.915 3.6923 15.7751 5.34873 13.9248C7.00515 12.0745 8.97196 10.5501 11.1366 9.43886C13.3012 8.32758 15.6212 7.65125 17.9637 7.44858Z" fill="#F7DF1E"/>
<path d="M67.9503 82.175C69.9788 85.3222 72.618 87.5352 77.2856 87.1268C81.2068 86.7838 83.7116 84.5974 83.7116 81.8791C83.7116 78.6218 81.138 77.6932 76.8221 76.1758L74.4563 75.3638C67.6274 73.0409 63.0909 69.7792 63.0909 62.045C63.0909 54.9205 68.4986 49.0238 76.9499 48.2844C82.9667 47.758 87.2923 49.4816 90.4094 54.7127L83.0403 60.1071C81.4178 57.3286 79.6674 56.3313 76.9499 56.569C74.1781 56.8115 72.4214 58.7303 72.4214 61.0361C72.4214 63.8859 74.1797 64.8858 78.2399 66.2957L80.6057 67.106C88.6462 69.8637 93.186 72.9951 93.186 80.9283C93.186 89.4809 86.493 94.7519 77.5046 95.5383C68.716 96.3072 63.0381 92.5999 60.2599 87.3327L67.9503 82.175ZM34.5207 85.9228C36.0073 88.4404 37.3597 90.5605 40.611 90.2761C43.7201 90.004 45.6815 88.6113 45.6815 83.8633V51.5624L55.1447 50.7345V83.1637C55.1447 93 49.3996 97.9795 41.0139 98.7132C33.4369 99.3761 29.049 95.8238 26.8175 91.2782L34.5207 85.9228Z" fill="black"/>
</g>
<defs>
<clipPath id="clip0_1280_413">
<rect width="101.091" height="101.091" fill="white" transform="matrix(0.996195 -0.0871557 0 1 0.130371 9.00879)"/>
</clipPath>
</defs>
</svg>
