<svg width="45" height="45" viewBox="0 0 45 45" fill="none" xmlns="http://www.w3.org/2000/svg">
<g clip-path="url(#clip0_39_93)">
<path d="M7.96875 3.62707e-06H37.0312C38.078 -0.00100824 39.1147 0.209704 40.0819 0.620081C41.0492 1.03046 41.928 1.63244 42.6682 2.39159C43.4084 3.15073 43.9953 4.05212 44.3954 5.04418C44.7955 6.03624 45.001 7.09949 45 8.17308V36.8269C45.001 37.9005 44.7955 38.9638 44.3954 39.9558C43.9953 40.9479 43.4084 41.8493 42.6682 42.6084C41.928 43.3676 41.0492 43.9695 40.0819 44.3799C39.1147 44.7903 38.078 45.001 37.0312 45H7.96875C6.922 45.001 5.88534 44.7903 4.91808 44.3799C3.95082 43.9695 3.07196 43.3676 2.3318 42.6084C1.59163 41.8493 1.0047 40.9479 0.604579 39.9558C0.204461 38.9638 -0.000983032 37.9005 3.53639e-06 36.8269V8.17308C-0.000983032 7.09949 0.204461 6.03624 0.604579 5.04418C1.0047 4.05212 1.59163 3.15073 2.3318 2.39159C3.07196 1.63244 3.95082 1.03046 4.91808 0.620081C5.88534 0.209704 6.922 -0.00100824 7.96875 3.62707e-06Z" fill="#F7DF1E"/>
<path d="M30.305 35.2108C31.2114 36.6908 32.3907 37.7787 34.4764 37.7787C36.2286 37.7787 37.3479 36.903 37.3479 35.693C37.3479 34.243 36.1979 33.7294 34.2693 32.8858L33.2121 32.4322C30.1607 31.1322 28.1336 29.5037 28.1336 26.0608C28.1336 22.8894 30.55 20.4751 34.3264 20.4751C37.015 20.4751 38.9479 21.4108 40.3407 23.8608L37.0479 25.9751C36.3229 24.6751 35.5407 24.163 34.3264 24.163C33.0879 24.163 32.3029 24.9487 32.3029 25.9751C32.3029 27.2437 33.0886 27.7572 34.9029 28.543L35.96 28.9958C39.5529 30.5365 41.5814 32.1072 41.5814 35.6387C41.5814 39.4458 38.5907 41.5315 34.5743 41.5315C30.6471 41.5315 28.11 39.6601 26.8686 37.2072L30.305 35.2108ZM15.3671 35.5772C16.0314 36.7558 16.6357 37.7522 18.0886 37.7522C19.4779 37.7522 20.3543 37.2087 20.3543 35.0951V20.7165H24.5829V35.1522C24.5829 39.5308 22.0157 41.5237 18.2686 41.5237C14.8829 41.5237 12.9221 39.7715 11.925 37.6612L15.3671 35.5772Z" fill="black"/>
</g>
<defs>
<clipPath id="clip0_39_93">
<rect width="45" height="45" fill="white"/>
</clipPath>
</defs>
</svg>
