<svg width="59" height="35" viewBox="0 0 59 35" fill="none" xmlns="http://www.w3.org/2000/svg">
<path d="M15.1534 34.6818C12.1989 34.6818 9.62784 33.9503 7.44034 32.4872C5.25284 31.0241 3.5625 29.0213 2.36932 26.4787C1.17614 23.9361 0.579546 21.0384 0.579546 17.7855C0.579546 14.5185 1.17614 11.6065 2.36932 9.04971C3.5767 6.4929 5.23153 4.47585 7.33381 2.99858C9.43608 1.52131 11.8366 0.782669 14.5355 0.782669C16.3679 0.782669 18.1009 1.15199 19.7344 1.89062C21.3821 2.61506 22.831 3.66619 24.081 5.04403C25.3452 6.42187 26.3324 8.08381 27.0426 10.0298C27.767 11.9759 28.1293 14.1634 28.1293 16.5923V18.2116H2.22017V15.8466H25.5298C25.5298 13.4744 25.0469 11.3366 24.081 9.43324C23.1151 7.52983 21.8011 6.01705 20.1392 4.89489C18.4773 3.77273 16.6094 3.21165 14.5355 3.21165C12.3622 3.21165 10.4233 3.82244 8.71875 5.04403C7.02841 6.25142 5.68608 7.88494 4.69176 9.9446C3.71165 12.0043 3.20028 14.3054 3.15767 16.848V17.9134C3.15767 20.6406 3.63352 23.0909 4.58523 25.2642C5.55114 27.4233 6.92898 29.1349 8.71875 30.3991C10.5085 31.6491 12.6534 32.2741 15.1534 32.2741C16.9432 32.2741 18.4702 31.9759 19.7344 31.3793C21.0128 30.7685 22.0568 30.0298 22.8665 29.1634C23.6761 28.2969 24.2869 27.4588 24.6989 26.6491L27.0639 27.608C26.5668 28.7017 25.7926 29.7955 24.7415 30.8892C23.7045 31.9687 22.3835 32.8707 20.7784 33.5952C19.1875 34.3196 17.3125 34.6818 15.1534 34.6818ZM37.1793 1.27273L46.2134 15.8253L55.2475 1.27273H58.2518L47.7688 17.6364L58.2518 34H55.2475L46.2134 19.6818L37.1793 34H34.1538L44.5941 17.6364L34.1538 1.27273H37.1793Z" fill="black"/>
</svg>
