<svg width="45" height="45" viewBox="0 0 45 45" fill="none" xmlns="http://www.w3.org/2000/svg">
<g clip-path="url(#clip0_39_74)">
<path d="M7.96875 3.62707e-06H37.0312C38.078 -0.00100824 39.1147 0.209704 40.0819 0.620081C41.0492 1.03046 41.928 1.63244 42.6682 2.39159C43.4084 3.15073 43.9953 4.05212 44.3954 5.04418C44.7955 6.03624 45.001 7.09949 45 8.17308V36.8269C45.001 37.9005 44.7955 38.9638 44.3954 39.9558C43.9953 40.9479 43.4084 41.8493 42.6682 42.6084C41.928 43.3676 41.0492 43.9695 40.0819 44.3799C39.1147 44.7903 38.078 45.001 37.0312 45H7.96875C6.922 45.001 5.88534 44.7903 4.91808 44.3799C3.95082 43.9695 3.07196 43.3676 2.3318 42.6084C1.59163 41.8493 1.0047 40.9479 0.604579 39.9558C0.204461 38.9638 -0.000983032 37.9005 3.53639e-06 36.8269V8.17308C-0.000983032 7.09949 0.204461 6.03624 0.604579 5.04418C1.0047 4.05212 1.59163 3.15073 2.3318 2.39159C3.07196 1.63244 3.95082 1.03046 4.91808 0.620081C5.88534 0.209704 6.922 -0.00100824 7.96875 3.62707e-06Z" fill="#000B1D"/>
<g clip-path="url(#clip1_39_74)">
<path d="M22.5 25.4754C24.2278 25.4754 25.6285 24.0929 25.6285 22.3874C25.6285 20.682 24.2278 19.2994 22.5 19.2994C20.7722 19.2994 19.3715 20.682 19.3715 22.3874C19.3715 24.0929 20.7722 25.4754 22.5 25.4754Z" fill="#61DAFB"/>
<path fill-rule="evenodd" clip-rule="evenodd" d="M7.52224 20.4606C6.76318 21.1369 6.44429 21.7893 6.44429 22.3874C6.44429 22.9855 6.76318 23.6379 7.52224 24.3143C8.28123 24.9905 9.42056 25.6327 10.8907 26.1867C13.8259 27.2929 17.9302 27.9923 22.5 27.9923C27.0698 27.9923 31.1741 27.2929 34.1093 26.1867C35.5794 25.6327 36.7188 24.9905 37.4778 24.3143C38.2368 23.6379 38.5557 22.9855 38.5557 22.3874C38.5557 21.7893 38.2368 21.1369 37.4778 20.4606C36.7188 19.7843 35.5794 19.1422 34.1093 18.5881C31.1741 17.4819 27.0698 16.7826 22.5 16.7826C17.9302 16.7826 13.8259 17.4819 10.8907 18.5881C9.42056 19.1422 8.28123 19.7843 7.52224 20.4606ZM10.369 17.2395C13.5095 16.0559 17.7987 15.339 22.5 15.339C27.2014 15.339 31.4905 16.0559 34.631 17.2395C36.1987 17.8303 37.5178 18.5515 38.4577 19.389C39.3976 20.2265 40.0182 21.2385 40.0182 22.3874C40.0182 23.5363 39.3976 24.5483 38.4577 25.3858C37.5178 26.2233 36.1987 26.9445 34.631 27.5353C31.4905 28.7189 27.2014 29.4358 22.5 29.4358C17.7987 29.4358 13.5095 28.7189 10.369 27.5353C8.80126 26.9445 7.4822 26.2233 6.54225 25.3858C5.60238 24.5483 4.98179 23.5363 4.98179 22.3874C4.98179 21.2385 5.60238 20.2265 6.54225 19.389C7.4822 18.5515 8.80126 17.8303 10.369 17.2395Z" fill="#61DAFB"/>
<path fill-rule="evenodd" clip-rule="evenodd" d="M16.7017 8.62073C15.7287 8.31004 14.9969 8.36363 14.4721 8.66269C13.9474 8.96176 13.5344 9.56052 13.3206 10.5476C13.1067 11.5345 13.113 12.8295 13.3619 14.3632C13.8589 17.4254 15.2975 21.2835 17.5824 25.1899C19.8673 29.0962 22.5331 32.255 24.9712 34.211C26.1924 35.1906 27.3255 35.8435 28.2983 36.1542C29.2713 36.4648 30.0031 36.4113 30.5279 36.1122C31.0526 35.8131 31.4656 35.2144 31.6794 34.2273C31.8933 33.2404 31.887 31.9454 31.6381 30.4117C31.141 27.3495 29.7025 23.4914 27.4176 19.585C25.1326 15.6786 22.4669 12.5198 20.0288 10.5639C18.8076 9.58424 17.6745 8.93138 16.7017 8.62073ZM20.9512 9.44365C23.5599 11.5364 26.3335 14.8444 28.6841 18.8632C31.0348 22.882 32.5504 26.907 33.0822 30.1833C33.3476 31.8189 33.3744 33.307 33.1096 34.5293C32.8448 35.7514 32.2671 36.7879 31.2591 37.3624C30.2511 37.9368 29.0529 37.9123 27.8482 37.5276C26.6434 37.1429 25.3511 36.3759 24.0488 35.3312C21.4401 33.2385 18.6665 29.9305 16.3159 25.9117C13.9652 21.8928 12.4496 17.8679 11.9178 14.5916C11.6524 12.956 11.6256 11.4679 11.8904 10.2456C12.1552 9.02348 12.7329 7.98698 13.7409 7.41252C14.7489 6.83806 15.9471 6.86255 17.1518 7.24723C18.3566 7.63195 19.6489 8.39894 20.9512 9.44365Z" fill="#61DAFB"/>
<path fill-rule="evenodd" clip-rule="evenodd" d="M31.6794 10.5476C31.4656 9.56056 31.0526 8.9618 30.5279 8.66273C30.0031 8.36366 29.2713 8.31008 28.2983 8.62076C27.3255 8.93142 26.1924 9.58428 24.9713 10.5639C22.5331 12.5199 19.8674 15.6787 17.5824 19.5851C15.2975 23.4914 13.859 27.3496 13.3619 30.4117C13.113 31.9454 13.1067 33.2404 13.3206 34.2274C13.5345 35.2144 13.9474 35.8132 14.4722 36.1122C14.9969 36.4113 15.7287 36.4649 16.7017 36.1542C17.6745 35.8435 18.8076 35.1907 20.0288 34.211C22.4669 32.2551 25.1327 29.0963 27.4176 25.1899C29.7025 21.2835 31.1411 17.4254 31.6381 14.3632C31.887 12.8295 31.8933 11.5345 31.6794 10.5476ZM33.0822 14.5916C32.5504 17.868 31.0348 21.8929 28.6841 25.9117C26.3335 29.9305 23.5599 33.2385 20.9512 35.3313C19.6489 36.376 18.3567 37.143 17.1518 37.5277C15.9471 37.9124 14.7489 37.9369 13.7409 37.3624C12.7329 36.7879 12.1552 35.7514 11.8904 34.5293C11.6256 33.307 11.6524 31.8189 11.9178 30.1834C12.4496 26.907 13.9652 22.8821 16.3159 18.8633C18.6666 14.8445 21.4401 11.5365 24.0488 9.44368C25.3511 8.39897 26.6434 7.63199 27.8482 7.24727C29.0529 6.86258 30.2511 6.8381 31.2591 7.41256C32.2671 7.98701 32.8448 9.02351 33.1096 10.2457C33.3745 11.4679 33.3476 12.956 33.0822 14.5916Z" fill="#61DAFB"/>
</g>
</g>
<defs>
<clipPath id="clip0_39_74">
<rect width="45" height="45" fill="white"/>
</clipPath>
<clipPath id="clip1_39_74">
<rect width="35.1" height="30.825" fill="white" transform="translate(4.95 6.97498)"/>
</clipPath>
</defs>
</svg>
