<svg width="101" height="106" viewBox="0 0 101 106" fill="none" xmlns="http://www.w3.org/2000/svg">
<mask id="mask0_314_354" style="mask-type:luminance" maskUnits="userSpaceOnUse" x="0" y="0" width="101" height="106">
<path d="M94.2006 78.1074C86.2416 92.8223 72.8919 101.707 54.1513 104.761C35.4107 107.815 20.3257 100.457 8.89624 82.6885C-2.53321 64.9196 -2.94966 46.4335 7.64687 27.2302C18.2434 8.0269 34.3001 -1.01948 55.8171 0.0910704C77.3341 1.20162 91.1003 10.8033 97.1158 28.896C103.131 46.9888 102.16 63.3926 94.2006 78.1074Z" fill="white"/>
</mask>
<g mask="url(#mask0_314_354)">
<path d="M94.2006 78.1074C86.2416 92.8223 72.8919 101.707 54.1513 104.761C35.4107 107.815 20.3257 100.457 8.89624 82.6885C-2.53321 64.9196 -2.94966 46.4335 7.64687 27.2302C18.2434 8.0269 34.3001 -1.01948 55.8171 0.0910704C77.3341 1.20162 91.1003 10.8033 97.1158 28.896C103.131 46.9888 102.16 63.3926 94.2006 78.1074Z" fill="white"/>
</g>
<g clip-path="url(#clip0_314_354)">
<path fill-rule="evenodd" clip-rule="evenodd" d="M51.0165 33C39.9479 33 31 42.0139 31 53.1653C31 62.0792 36.7332 69.6246 44.6868 72.2952C45.6812 72.496 46.0454 71.8613 46.0454 71.3274C46.0454 70.8599 46.0126 69.2575 46.0126 67.5879C40.4445 68.79 39.285 65.1841 39.285 65.1841C38.3902 62.847 37.0643 62.2463 37.0643 62.2463C35.2418 61.011 37.197 61.011 37.197 61.011C39.2186 61.1446 40.2794 63.081 40.2794 63.081C42.0686 66.1522 44.9518 65.2844 46.1118 64.7502C46.2773 63.4481 46.8079 62.5467 47.3713 62.046C42.9303 61.5785 38.2578 59.8425 38.2578 52.0967C38.2578 49.8932 39.0527 48.0905 40.3122 46.6884C40.1134 46.1877 39.4173 44.1174 40.5113 41.3464C40.5113 41.3464 42.2014 40.8122 46.0122 43.4164C47.6438 42.9749 49.3263 42.7504 51.0165 42.7485C52.7067 42.7485 54.4295 42.9825 56.0205 43.4164C59.8317 40.8122 61.5218 41.3464 61.5218 41.3464C62.6158 44.1174 61.9192 46.1877 61.7205 46.6884C63.0132 48.0905 63.7753 49.8932 63.7753 52.0967C63.7753 59.8425 59.1028 61.5449 54.6287 62.046C55.358 62.6802 55.9873 63.882 55.9873 65.7851C55.9873 68.4893 55.9545 70.6596 55.9545 71.327C55.9545 71.8613 56.3192 72.496 57.3132 72.2956C65.2667 69.6242 70.9999 62.0792 70.9999 53.1653C71.0327 42.0139 62.052 33 51.0165 33Z" fill="black"/>
</g>
<defs>
<clipPath id="clip0_314_354">
<rect width="40" height="40" fill="white" transform="translate(31 33)"/>
</clipPath>
</defs>
</svg>
