<svg width="101" height="106" viewBox="0 0 101 106" fill="none" xmlns="http://www.w3.org/2000/svg">
<mask id="mask0_314_353" style="mask-type:luminance" maskUnits="userSpaceOnUse" x="0" y="0" width="101" height="106">
<path d="M94.2006 78.1074C86.2416 92.8223 72.8919 101.707 54.1513 104.761C35.4107 107.815 20.3257 100.457 8.89624 82.6885C-2.53321 64.9196 -2.94966 46.4335 7.64687 27.2302C18.2434 8.0269 34.3001 -1.01948 55.8171 0.0910704C77.3341 1.20162 91.1003 10.8033 97.1158 28.896C103.131 46.9888 102.16 63.3926 94.2006 78.1074Z" fill="white"/>
</mask>
<g mask="url(#mask0_314_353)">
<path d="M94.2006 78.1074C86.2416 92.8223 72.8919 101.707 54.1513 104.761C35.4107 107.815 20.3257 100.457 8.89624 82.6885C-2.53321 64.9196 -2.94966 46.4335 7.64687 27.2302C18.2434 8.0269 34.3001 -1.01948 55.8171 0.0910704C77.3341 1.20162 91.1003 10.8033 97.1158 28.896C103.131 46.9888 102.16 63.3926 94.2006 78.1074Z" fill="white"/>
</g>
<g clip-path="url(#clip0_314_353)">
<path d="M51 36.6016C56.3438 36.6016 56.9766 36.625 59.0781 36.7187C61.0313 36.8047 62.0859 37.1328 62.7891 37.4063C63.7188 37.7656 64.3906 38.2031 65.0859 38.8984C65.7891 39.6016 66.2188 40.2656 66.5781 41.1953C66.8516 41.8984 67.1797 42.9609 67.2656 44.9063C67.3594 47.0156 67.3828 47.6484 67.3828 52.9844C67.3828 58.3281 67.3594 58.9609 67.2656 61.0625C67.1797 63.0156 66.8516 64.0703 66.5781 64.7734C66.2188 65.7031 65.7813 66.375 65.0859 67.0703C64.3828 67.7734 63.7188 68.2031 62.7891 68.5625C62.0859 68.8359 61.0234 69.1641 59.0781 69.25C56.9688 69.3438 56.3359 69.3672 51 69.3672C45.6563 69.3672 45.0234 69.3438 42.9219 69.25C40.9688 69.1641 39.9141 68.8359 39.2109 68.5625C38.2813 68.2031 37.6094 67.7656 36.9141 67.0703C36.2109 66.3672 35.7813 65.7031 35.4219 64.7734C35.1484 64.0703 34.8203 63.0078 34.7344 61.0625C34.6406 58.9531 34.6172 58.3203 34.6172 52.9844C34.6172 47.6406 34.6406 47.0078 34.7344 44.9063C34.8203 42.9531 35.1484 41.8984 35.4219 41.1953C35.7813 40.2656 36.2188 39.5938 36.9141 38.8984C37.6172 38.1953 38.2813 37.7656 39.2109 37.4063C39.9141 37.1328 40.9766 36.8047 42.9219 36.7187C45.0234 36.625 45.6563 36.6016 51 36.6016ZM51 33C45.5703 33 44.8906 33.0234 42.7578 33.1172C40.6328 33.2109 39.1719 33.5547 37.9063 34.0469C36.5859 34.5625 35.4688 35.2422 34.3594 36.3594C33.2422 37.4688 32.5625 38.5859 32.0469 39.8984C31.5547 41.1719 31.2109 42.625 31.1172 44.75C31.0234 46.8906 31 47.5703 31 53C31 58.4297 31.0234 59.1094 31.1172 61.2422C31.2109 63.3672 31.5547 64.8281 32.0469 66.0938C32.5625 67.4141 33.2422 68.5313 34.3594 69.6406C35.4688 70.75 36.5859 71.4375 37.8984 71.9453C39.1719 72.4375 40.625 72.7813 42.75 72.875C44.8828 72.9688 45.5625 72.9922 50.9922 72.9922C56.4219 72.9922 57.1016 72.9688 59.2344 72.875C61.3594 72.7813 62.8203 72.4375 64.0859 71.9453C65.3984 71.4375 66.5156 70.75 67.625 69.6406C68.7344 68.5313 69.4219 67.4141 69.9297 66.1016C70.4219 64.8281 70.7656 63.375 70.8594 61.25C70.9531 59.1172 70.9766 58.4375 70.9766 53.0078C70.9766 47.5781 70.9531 46.8984 70.8594 44.7656C70.7656 42.6406 70.4219 41.1797 69.9297 39.9141C69.4375 38.5859 68.7578 37.4688 67.6406 36.3594C66.5313 35.25 65.4141 34.5625 64.1016 34.0547C62.8281 33.5625 61.375 33.2188 59.25 33.125C57.1094 33.0234 56.4297 33 51 33Z" fill="black"/>
<path d="M51 42.7266C45.3281 42.7266 40.7266 47.3281 40.7266 53C40.7266 58.6719 45.3281 63.2734 51 63.2734C56.6719 63.2734 61.2734 58.6719 61.2734 53C61.2734 47.3281 56.6719 42.7266 51 42.7266ZM51 59.6641C47.3203 59.6641 44.3359 56.6797 44.3359 53C44.3359 49.3203 47.3203 46.3359 51 46.3359C54.6797 46.3359 57.6641 49.3203 57.6641 53C57.6641 56.6797 54.6797 59.6641 51 59.6641Z" fill="black"/>
<path d="M64.0781 42.3202C64.0781 43.6484 63 44.7187 61.6797 44.7187C60.3516 44.7187 59.2812 43.6406 59.2812 42.3202C59.2812 40.9921 60.3594 39.9218 61.6797 39.9218C63 39.9218 64.0781 40.9999 64.0781 42.3202Z" fill="black"/>
</g>
<defs>
<clipPath id="clip0_314_353">
<rect width="40" height="40" fill="white" transform="translate(31 33)"/>
</clipPath>
</defs>
</svg>
