<svg width="170" height="177" viewBox="0 0 170 177" fill="none" xmlns="http://www.w3.org/2000/svg">
<mask id="mask0_314_355" style="mask-type:luminance" maskUnits="userSpaceOnUse" x="0" y="0" width="170" height="177">
<path d="M158.11 131.099C144.752 155.797 122.345 170.709 90.8898 175.835C59.4348 180.961 34.1155 168.612 14.9318 138.788C-4.25184 108.964 -4.95084 77.936 12.8348 45.7044C30.6205 13.4727 57.5708 -1.71114 93.6858 0.152856C129.801 2.01686 152.907 18.1327 163.003 48.5004C173.1 78.868 171.469 106.401 158.11 131.099Z" fill="white"/>
</mask>
<g mask="url(#mask0_314_355)">
<path d="M158.11 131.099C144.752 155.797 122.345 170.709 90.8898 175.835C59.4348 180.961 34.1155 168.612 14.9318 138.788C-4.25184 108.964 -4.95084 77.936 12.8348 45.7044C30.6205 13.4727 57.5708 -1.71114 93.6858 0.152856C129.801 2.01686 152.907 18.1327 163.003 48.5004C173.1 78.868 171.469 106.401 158.11 131.099Z" fill="white"/>
</g>
<g clip-path="url(#clip0_314_355)">
<path d="M110.559 58H59.4297C56.9805 58 55 59.9336 55 62.3242V113.664C55 116.055 56.9805 118 59.4297 118H110.559C113.008 118 115 116.055 115 113.676V62.3242C115 59.9336 113.008 58 110.559 58ZM72.8008 109.129H63.8945V80.4883H72.8008V109.129ZM68.3477 76.5859C65.4883 76.5859 63.1797 74.2773 63.1797 71.4297C63.1797 68.582 65.4883 66.2734 68.3477 66.2734C71.1953 66.2734 73.5039 68.582 73.5039 71.4297C73.5039 74.2656 71.1953 76.5859 68.3477 76.5859ZM106.129 109.129H97.2344V95.207C97.2344 91.8906 97.1758 87.6133 92.6055 87.6133C87.9766 87.6133 87.2734 91.2344 87.2734 94.9727V109.129H78.3906V80.4883H86.9219V84.4023H87.0391C88.2227 82.1523 91.1289 79.7734 95.4531 79.7734C104.465 79.7734 106.129 85.7031 106.129 93.4141V109.129V109.129Z" fill="black"/>
</g>
<defs>
<clipPath id="clip0_314_355">
<rect width="60" height="60" fill="white" transform="translate(55 58)"/>
</clipPath>
</defs>
</svg>
