<svg width="101" height="106" viewBox="0 0 101 106" fill="none" xmlns="http://www.w3.org/2000/svg">
<mask id="mask0_314_356" style="mask-type:luminance" maskUnits="userSpaceOnUse" x="0" y="0" width="101" height="106">
<path d="M94.2006 78.1074C86.2416 92.8223 72.8919 101.707 54.1513 104.761C35.4107 107.815 20.3257 100.457 8.89624 82.6885C-2.53321 64.9196 -2.94966 46.4335 7.64687 27.2302C18.2434 8.0269 34.3001 -1.01948 55.8171 0.0910704C77.3341 1.20162 91.1003 10.8033 97.1158 28.896C103.131 46.9888 102.16 63.3926 94.2006 78.1074Z" fill="white"/>
</mask>
<g mask="url(#mask0_314_356)">
<path d="M94.2006 78.1074C86.2416 92.8223 72.8919 101.707 54.1513 104.761C35.4107 107.815 20.3257 100.457 8.89624 82.6885C-2.53321 64.9196 -2.94966 46.4335 7.64687 27.2302C18.2434 8.0269 34.3001 -1.01948 55.8171 0.0910704C77.3341 1.20162 91.1003 10.8033 97.1158 28.896C103.131 46.9888 102.16 63.3926 94.2006 78.1074Z" fill="white"/>
</g>
<path d="M61.5436 36.1732H67.1661L54.8827 50.2123L69.3332 69.3165H58.0186L49.1566 57.7299L39.0164 69.3165H33.3906L46.5289 54.3L32.6665 36.1732H44.2684L52.2788 46.7637L61.5436 36.1732ZM59.5703 65.9512H62.6858L42.5755 39.3617H39.2323L59.5703 65.9512Z" fill="black"/>
</svg>
